<?xml version="1.0" standalone="no"?><!DOCTYPE svg PUBLIC "-//W3C//DTD SVG 1.1//EN" "http://www.w3.org/Graphics/SVG/1.1/DTD/svg11.dtd"><svg t="1550562990010" class="icon" style="" viewBox="0 0 1024 1024" version="1.1" xmlns="http://www.w3.org/2000/svg" p-id="5560" xmlns:xlink="http://www.w3.org/1999/xlink" width="200" height="200"><defs><style type="text/css"></style></defs><path d="M412.212245 474.488163a20.897959 20.897959 0 0 1-9.299592-2.194285L142.419592 342.413061a20.897959 20.897959 0 0 1 18.703673-37.407347l260.388572 129.880817a20.897959 20.897959 0 0 1-9.299592 39.601632zM95.921633 695.484082a20.897959 20.897959 0 0 1-20.89796-20.89796V352.966531a20.897959 20.897959 0 0 1 41.795919 0v321.619591a20.897959 20.897959 0 0 1-20.897959 20.89796zM406.674286 905.717551a20.897959 20.897959 0 0 1-9.299592-2.194286L132.806531 771.552653a20.897959 20.897959 0 0 1 18.703673-37.407347l264.463674 131.970612a20.897959 20.897959 0 0 1-9.299592 39.601633zM458.501224 868.101224a20.897959 20.897959 0 0 1-20.897959-20.897959V534.360816a20.897959 20.897959 0 0 1 41.795919 0v312.842449a20.897959 20.897959 0 0 1-20.89796 20.897959zM506.462041 471.457959a20.897959 20.897959 0 0 1-9.195102-39.601632l260.388571-128.20898a20.897959 20.897959 0 1 1 18.390204 37.511837L515.657143 469.263673a20.897959 20.897959 0 0 1-9.195102 2.194286zM821.080816 542.61551a20.897959 20.897959 0 0 1-20.897959-20.897959V360.594286a20.897959 20.897959 0 0 1 41.795919 0v161.123265a20.897959 20.897959 0 0 1-20.89796 20.897959zM506.462041 912.404898a20.897959 20.897959 0 0 1-10.44898-38.765714L543.346939 844.8a20.897959 20.897959 0 1 1 21.524898 35.84L517.22449 909.061224a20.897959 20.897959 0 0 1-10.762449 3.343674zM151.719184 289.227755a20.897959 20.897959 0 0 1-9.404082-39.601633l250.148571-125.387755a20.897959 20.897959 0 0 1 18.703674 37.407347l-250.148571 125.387755a20.897959 20.897959 0 0 1-9.299592 2.194286zM765.283265 289.227755a20.897959 20.897959 0 0 1-9.299592-2.194286l-250.148571-125.387755a20.897959 20.897959 0 0 1 18.703674-37.407347l250.148571 125.387755a20.897959 20.897959 0 0 1-9.404082 39.601633z" p-id="5561"></path><path d="M459.755102 191.738776a68.022857 68.022857 0 1 1 68.022857-68.022858A68.127347 68.127347 0 0 1 459.755102 191.738776z m0-94.040817a26.226939 26.226939 0 1 0 26.226939 26.226939A26.226939 26.226939 0 0 0 459.755102 97.48898zM814.08 373.86449a68.022857 68.022857 0 1 1 68.022857-68.022857 68.127347 68.127347 0 0 1-68.022857 68.022857z m0-94.040817a26.226939 26.226939 0 1 0 26.226939 26.226939 26.226939 26.226939 0 0 0-26.226939-26.331428zM104.489796 364.355918a68.022857 68.022857 0 1 1 68.022857-68.022857A68.127347 68.127347 0 0 1 104.489796 364.355918z m0-94.040816a26.226939 26.226939 0 1 0 26.226939 26.226939A26.226939 26.226939 0 0 0 104.489796 270.106122zM94.981224 795.689796a68.022857 68.022857 0 1 1 68.022858-68.022857 68.022857 68.022857 0 0 1-68.022858 68.022857z m0-94.040816a26.226939 26.226939 0 1 0 26.226939 26.226938 26.226939 26.226939 0 0 0-26.226939-26.435918zM459.755102 968.306939a68.022857 68.022857 0 1 1 68.022857-68.022857A68.127347 68.127347 0 0 1 459.755102 968.306939z m0-94.040817a26.226939 26.226939 0 1 0 26.226939 26.226939A26.226939 26.226939 0 0 0 459.755102 874.057143zM664.137143 916.166531a20.897959 20.897959 0 0 1-20.897959-17.763266c-3.239184-20.897959-7.000816-44.512653-8.986123-55.797551-35.84-26.644898-55.484082-61.44-55.484081-98.742857 0-81.188571 91.846531-144.718367 208.979591-144.718367s208.979592 63.529796 208.979592 144.718367S905.195102 888.163265 787.957551 888.163265a299.467755 299.467755 0 0 1-61.54449-6.269387c-10.44898 5.537959-32.391837 19.017143-51.408979 30.72a20.897959 20.897959 0 0 1-10.866939 3.552653z m123.820408-275.330613c-90.592653 0-167.183673 47.124898-167.183673 102.922449 0 25.286531 15.673469 49.841633 44.094693 69.067755 7.209796 4.806531 8.359184 5.642449 15.046531 48.065307 38.661224-23.405714 40.85551-22.883265 48.901225-20.89796a255.059592 255.059592 0 0 0 59.141224 6.791837c90.592653 0 167.183673-47.124898 167.183673-102.922449s-76.486531-103.026939-167.183673-103.026939z" p-id="5562"></path><path d="M705.410612 743.862857m-22.987755 0a22.987755 22.987755 0 1 0 45.97551 0 22.987755 22.987755 0 1 0-45.97551 0Z" p-id="5563"></path><path d="M787.957551 743.862857m-22.987755 0a22.987755 22.987755 0 1 0 45.97551 0 22.987755 22.987755 0 1 0-45.97551 0Z" p-id="5564"></path><path d="M870.60898 743.862857m-22.987756 0a22.987755 22.987755 0 1 0 45.975511 0 22.987755 22.987755 0 1 0-45.975511 0Z" p-id="5565"></path><path d="M459.755102 546.481633a68.022857 68.022857 0 1 1 68.022857-68.022857A68.127347 68.127347 0 0 1 459.755102 546.481633z m0-94.040817a26.226939 26.226939 0 1 0 26.226939 26.226939A26.226939 26.226939 0 0 0 459.755102 452.231837z" p-id="5566"></path></svg>